<?xml version="1.0" encoding="UTF-8" standalone="no"?><!DOCTYPE svg PUBLIC "-//W3C//DTD SVG 1.1//EN" "http://www.w3.org/Graphics/SVG/1.1/DTD/svg11.dtd"><svg width="100%" height="100%" viewBox="0 0 630 150" version="1.1" xmlns="http://www.w3.org/2000/svg" xmlns:xlink="http://www.w3.org/1999/xlink" xml:space="preserve" xmlns:serif="http://www.serif.com/" style="fill-rule:evenodd;clip-rule:evenodd;stroke-linejoin:round;stroke-miterlimit:2;"><g><g><path d="M129.907,141.772c-2.276,-0.034 -4.055,-0.656 -5.34,-1.868c-1.284,-1.212 -1.824,-2.763 -1.621,-4.652l0.084,-0.539c0.191,-1.346 0.729,-2.574 1.614,-3.686c0.884,-1.112 1.962,-1.95 3.235,-2.514c1.273,-0.564 2.647,-0.833 4.123,-0.808c1.881,0.033 3.356,0.497 4.426,1.391c1.07,0.895 1.656,2.107 1.757,3.636c0.034,0.543 0.012,1.087 -0.067,1.63l-0.186,1.041l-11.945,-0c-0.203,1.228 0.07,2.273 0.819,3.134c0.749,0.861 1.867,1.308 3.354,1.342c1.802,0.033 3.469,-0.569 5.001,-1.806l1.757,1.104c-0.766,0.819 -1.754,1.46 -2.965,1.924c-1.211,0.464 -2.56,0.688 -4.046,0.671Zm1.943,-12.174c-1.262,-0.025 -2.363,0.292 -3.304,0.953c-0.94,0.66 -1.686,1.642 -2.238,2.946l8.887,0.013l0.068,-0.201c0.18,-1.053 -0.048,-1.929 -0.685,-2.627c-0.636,-0.698 -1.546,-1.059 -2.728,-1.084Z" style="fill:#64727d;fill-rule:nonzero;"/><path d="M143.254,141.521l-3.041,0l4.494,-19.258l3.058,0l-4.511,19.258Z" style="fill:#64727d;fill-rule:nonzero;"/><path d="M156.163,141.772c-2.276,-0.034 -4.055,-0.656 -5.339,-1.868c-1.285,-1.212 -1.825,-2.763 -1.622,-4.652l0.084,-0.539c0.192,-1.346 0.729,-2.574 1.614,-3.686c0.884,-1.112 1.962,-1.95 3.235,-2.514c1.273,-0.564 2.647,-0.833 4.123,-0.808c1.881,0.033 3.356,0.497 4.426,1.391c1.07,0.895 1.656,2.107 1.758,3.636c0.033,0.543 0.011,1.087 -0.068,1.63l-0.186,1.041l-11.945,-0c-0.203,1.228 0.07,2.273 0.819,3.134c0.749,0.861 1.867,1.308 3.354,1.342c1.802,0.033 3.469,-0.569 5.001,-1.806l1.757,1.104c-0.766,0.819 -1.754,1.46 -2.965,1.924c-1.211,0.464 -2.56,0.688 -4.046,0.671Zm1.943,-12.174c-1.262,-0.025 -2.363,0.292 -3.303,0.953c-0.941,0.66 -1.687,1.642 -2.239,2.946l8.887,0.013l0.068,-0.201c0.18,-1.053 -0.048,-1.929 -0.685,-2.627c-0.636,-0.698 -1.546,-1.059 -2.728,-1.084Z" style="fill:#64727d;fill-rule:nonzero;"/><path d="M173.92,139.891c1.093,0.017 2.078,-0.219 2.957,-0.708c0.878,-0.489 1.453,-1.131 1.723,-1.925l2.889,-0.012c-0.169,0.852 -0.628,1.63 -1.377,2.332c-0.749,0.702 -1.692,1.249 -2.83,1.642c-1.137,0.393 -2.303,0.577 -3.497,0.552c-1.521,-0.017 -2.808,-0.312 -3.861,-0.884c-1.053,-0.573 -1.827,-1.371 -2.323,-2.395c-0.496,-1.024 -0.665,-2.175 -0.507,-3.454l0.085,-0.627c0.214,-1.304 0.726,-2.47 1.537,-3.498c0.811,-1.028 1.87,-1.828 3.177,-2.401c1.306,-0.572 2.748,-0.842 4.325,-0.808c1.915,0.033 3.447,0.509 4.596,1.429c1.148,0.919 1.723,2.085 1.723,3.498l-2.855,-0.013c-0.023,-0.886 -0.355,-1.602 -0.997,-2.15c-0.642,-0.547 -1.51,-0.838 -2.602,-0.871c-1.588,-0.025 -2.909,0.414 -3.962,1.316c-1.053,0.903 -1.71,2.165 -1.969,3.787l-0.05,0.326c-0.068,0.535 -0.079,1.086 -0.034,1.655c0.079,0.977 0.45,1.751 1.115,2.319c0.665,0.568 1.577,0.865 2.737,0.89Z" style="fill:#64727d;fill-rule:nonzero;"/><path d="M192.015,124.671l-0.777,3.284l3.329,0l-0.423,1.793l-3.311,0l-1.909,8.438c-0.034,0.217 -0.04,0.418 -0.017,0.602c0.078,0.652 0.557,0.978 1.436,0.978c0.371,-0 0.867,-0.042 1.487,-0.126l-0.237,1.894c-0.732,0.15 -1.475,0.225 -2.23,0.225c-1.217,-0.016 -2.129,-0.349 -2.737,-0.996c-0.609,-0.648 -0.845,-1.52 -0.71,-2.615l1.859,-8.4l-3.227,0l0.422,-1.793l3.227,0l0.777,-3.284l3.041,-0Z" style="fill:#64727d;fill-rule:nonzero;"/><path d="M198.385,141.521l-3.041,0l3.176,-13.566l3.042,0l-3.177,13.566Zm2.518,-18.518c0.518,-0.017 0.949,0.098 1.292,0.345c0.344,0.246 0.515,0.57 0.515,0.971c-0.011,0.393 -0.183,0.715 -0.515,0.966c-0.332,0.251 -0.763,0.384 -1.292,0.401c-0.53,0.017 -0.963,-0.096 -1.301,-0.338c-0.338,-0.243 -0.502,-0.56 -0.49,-0.953c0.011,-0.393 0.18,-0.719 0.507,-0.978c0.326,-0.259 0.754,-0.397 1.284,-0.414Z" style="fill:#64727d;fill-rule:nonzero;"/><path d="M213.541,127.705c1.532,0.016 2.844,0.326 3.936,0.927c1.093,0.602 1.901,1.432 2.425,2.489c0.524,1.057 0.701,2.213 0.532,3.467l-0.034,0.276c-0.214,1.32 -0.743,2.513 -1.588,3.579c-0.845,1.066 -1.937,1.895 -3.278,2.489c-1.34,0.593 -2.81,0.873 -4.409,0.84c-1.521,-0.017 -2.83,-0.326 -3.929,-0.928c-1.098,-0.602 -1.9,-1.421 -2.407,-2.457c-0.507,-1.037 -0.687,-2.178 -0.541,-3.423c0.169,-1.404 0.681,-2.666 1.538,-3.786c0.856,-1.12 1.957,-1.988 3.303,-2.602c1.346,-0.614 2.83,-0.905 4.452,-0.871Zm-6.218,7.271c-0.079,0.527 -0.079,1.074 0,1.643c0.113,0.986 0.51,1.772 1.191,2.357c0.682,0.585 1.591,0.89 2.729,0.915c1.014,0.025 1.949,-0.161 2.805,-0.558c0.856,-0.397 1.577,-0.996 2.162,-1.799c0.586,-0.802 0.963,-1.692 1.132,-2.67c0.09,-0.769 0.107,-1.417 0.051,-1.944c-0.135,-1.011 -0.546,-1.809 -1.233,-2.394c-0.688,-0.586 -1.6,-0.895 -2.738,-0.928c-1.577,-0.025 -2.917,0.434 -4.021,1.379c-1.104,0.944 -1.785,2.181 -2.044,3.711l-0.034,0.288Z" style="fill:#64727d;fill-rule:nonzero;"/><path d="M228.764,127.943l-0.439,1.717c1.644,-1.337 3.514,-1.989 5.609,-1.955c1.723,0.033 2.996,0.476 3.818,1.329c0.823,0.852 1.127,2.052 0.913,3.598l-1.994,8.889l-3.058,0l2.01,-8.927c0.068,-0.409 0.074,-0.79 0.017,-1.141c-0.191,-1.17 -1.12,-1.767 -2.787,-1.793c-1.836,-0.025 -3.447,0.703 -4.833,2.182l-2.264,9.679l-3.058,0l3.177,-13.566l2.889,-0.012Z" style="fill:#64727d;fill-rule:nonzero;"/><path d="M252.705,137.848c0.169,-0.937 -0.524,-1.597 -2.078,-1.981l-3.176,-0.69c-2.681,-0.685 -3.977,-1.822 -3.886,-3.41c0.078,-1.195 0.813,-2.175 2.204,-2.94c1.391,-0.765 3.028,-1.139 4.909,-1.122c1.847,0.016 3.348,0.415 4.502,1.197c1.155,0.781 1.71,1.799 1.665,3.053l-3.042,-0.013c0.023,-0.677 -0.264,-1.228 -0.861,-1.655c-0.597,-0.426 -1.391,-0.647 -2.383,-0.664c-1.058,-0.017 -1.971,0.175 -2.737,0.577c-0.709,0.376 -1.121,0.869 -1.233,1.479c-0.147,0.786 0.501,1.358 1.943,1.718l1.537,0.313c2.095,0.401 3.582,0.924 4.461,1.567c0.878,0.644 1.284,1.442 1.216,2.395c-0.067,0.844 -0.439,1.58 -1.115,2.207c-0.676,0.627 -1.577,1.105 -2.703,1.435c-1.126,0.33 -2.326,0.483 -3.599,0.458c-1.937,-0.017 -3.537,-0.437 -4.798,-1.26c-1.262,-0.824 -1.87,-1.883 -1.825,-3.178l3.058,0.012c0,0.761 0.327,1.371 0.98,1.831c0.653,0.459 1.549,0.689 2.686,0.689c1.116,0.017 2.079,-0.157 2.89,-0.52c0.811,-0.364 1.272,-0.863 1.385,-1.498Z" style="fill:#64727d;fill-rule:nonzero;"/><path d="M287.004,141.521c-0.079,-0.242 -0.119,-0.481 -0.119,-0.715l0.051,-0.714c-1.678,1.153 -3.458,1.713 -5.339,1.68c-1.611,-0.017 -2.92,-0.395 -3.928,-1.135c-1.008,-0.74 -1.467,-1.665 -1.377,-2.777c0.112,-1.438 0.96,-2.56 2.542,-3.366c1.583,-0.807 3.664,-1.21 6.243,-1.21l3.194,0.012l0.202,-1.078c0.113,-0.811 -0.098,-1.452 -0.633,-1.924c-0.535,-0.473 -1.338,-0.717 -2.408,-0.734c-1.047,-0.017 -1.974,0.174 -2.779,0.571c-0.805,0.397 -1.298,0.921 -1.478,1.573l-3.076,0.013c0.102,-0.794 0.519,-1.499 1.251,-2.113c0.732,-0.614 1.672,-1.091 2.821,-1.429c1.149,-0.339 2.338,-0.5 3.565,-0.483c1.904,0.034 3.385,0.462 4.444,1.285c1.059,0.823 1.504,1.916 1.335,3.279l-1.487,6.72l-0.085,0.965c-0.022,0.46 0.045,0.916 0.203,1.367l-0.034,0.213l-3.108,0Zm-4.799,-1.755c0.98,0.017 1.907,-0.157 2.78,-0.521c0.872,-0.363 1.624,-0.867 2.255,-1.51l0.659,-2.796l-2.315,-0.013c-1.926,0 -3.401,0.226 -4.426,0.677c-1.025,0.452 -1.605,1.091 -1.741,1.919c-0.101,0.635 0.099,1.163 0.6,1.586c0.501,0.422 1.231,0.641 2.188,0.658Z" style="fill:#64727d;fill-rule:nonzero;"/><path d="M300.317,127.943l-0.439,1.717c1.645,-1.337 3.514,-1.989 5.61,-1.955c1.723,0.033 2.996,0.476 3.818,1.329c0.822,0.852 1.126,2.052 0.912,3.598l-1.993,8.889l-3.058,0l2.01,-8.927c0.068,-0.409 0.073,-0.79 0.017,-1.141c-0.191,-1.17 -1.121,-1.767 -2.788,-1.793c-1.836,-0.025 -3.447,0.703 -4.832,2.182l-2.264,9.679l-3.058,0l3.176,-13.566l2.889,-0.012Z" style="fill:#64727d;fill-rule:nonzero;"/><path d="M319.494,138.098l6.505,-10.143l3.379,0l-10.847,15.823c-1.509,2.198 -3.447,3.285 -5.812,3.26c-0.417,-0.009 -1.031,-0.084 -1.842,-0.226l0.271,-1.881l0.794,0.063c0.968,0.033 1.805,-0.127 2.509,-0.483c0.704,-0.355 1.326,-0.93 1.867,-1.724l1.098,-1.554l-3.16,-13.278l3.194,0l2.044,10.143Z" style="fill:#64727d;fill-rule:nonzero;"/><path d="M339.144,127.705c1.532,0.016 2.844,0.326 3.937,0.927c1.092,0.602 1.9,1.432 2.424,2.489c0.524,1.057 0.701,2.213 0.532,3.467l-0.033,0.276c-0.214,1.32 -0.744,2.513 -1.589,3.579c-0.844,1.066 -1.937,1.895 -3.277,2.489c-1.341,0.593 -2.811,0.873 -4.41,0.84c-1.521,-0.017 -2.83,-0.326 -3.928,-0.928c-1.099,-0.602 -1.901,-1.421 -2.408,-2.457c-0.507,-1.037 -0.687,-2.178 -0.541,-3.423c0.169,-1.404 0.682,-2.666 1.538,-3.786c0.856,-1.12 1.957,-1.988 3.303,-2.602c1.346,-0.614 2.83,-0.905 4.452,-0.871Zm-6.218,7.271c-0.079,0.527 -0.079,1.074 0,1.643c0.113,0.986 0.51,1.772 1.191,2.357c0.682,0.585 1.591,0.89 2.729,0.915c1.014,0.025 1.949,-0.161 2.805,-0.558c0.856,-0.397 1.577,-0.996 2.162,-1.799c0.586,-0.802 0.964,-1.692 1.133,-2.67c0.09,-0.769 0.107,-1.417 0.05,-1.944c-0.135,-1.011 -0.546,-1.809 -1.233,-2.394c-0.687,-0.586 -1.6,-0.895 -2.737,-0.928c-1.577,-0.025 -2.918,0.434 -4.022,1.379c-1.103,0.944 -1.785,2.181 -2.044,3.711l-0.034,0.288Z" style="fill:#64727d;fill-rule:nonzero;"/><path d="M354.367,127.943l-0.439,1.717c1.644,-1.337 3.514,-1.989 5.609,-1.955c1.724,0.033 2.996,0.476 3.819,1.329c0.822,0.852 1.126,2.052 0.912,3.598l-1.994,8.889l-3.058,0l2.011,-8.927c0.067,-0.409 0.073,-0.79 0.017,-1.141c-0.192,-1.17 -1.121,-1.767 -2.788,-1.793c-1.836,-0.025 -3.447,0.703 -4.832,2.182l-2.264,9.679l-3.059,0l3.177,-13.566l2.889,-0.012Z" style="fill:#64727d;fill-rule:nonzero;"/><path d="M374.895,141.772c-2.275,-0.034 -4.055,-0.656 -5.339,-1.868c-1.284,-1.212 -1.824,-2.763 -1.622,-4.652l0.085,-0.539c0.191,-1.346 0.729,-2.574 1.613,-3.686c0.885,-1.112 1.963,-1.95 3.236,-2.514c1.273,-0.564 2.647,-0.833 4.123,-0.808c1.881,0.033 3.356,0.497 4.426,1.391c1.07,0.895 1.656,2.107 1.757,3.636c0.034,0.543 0.012,1.087 -0.067,1.63l-0.186,1.041l-11.945,-0c-0.203,1.228 0.07,2.273 0.819,3.134c0.749,0.861 1.867,1.308 3.354,1.342c1.802,0.033 3.469,-0.569 5.001,-1.806l1.757,1.104c-0.766,0.819 -1.754,1.46 -2.965,1.924c-1.211,0.464 -2.56,0.688 -4.047,0.671Zm1.943,-12.174c-1.261,-0.025 -2.362,0.292 -3.303,0.953c-0.94,0.66 -1.686,1.642 -2.238,2.946l8.887,0.013l0.067,-0.201c0.181,-1.053 -0.047,-1.929 -0.684,-2.627c-0.636,-0.698 -1.546,-1.059 -2.729,-1.084Z" style="fill:#64727d;fill-rule:nonzero;"/><path d="M409.616,139.891c1.093,0.017 2.078,-0.219 2.957,-0.708c0.879,-0.489 1.453,-1.131 1.723,-1.925l2.89,-0.012c-0.169,0.852 -0.628,1.63 -1.377,2.332c-0.749,0.702 -1.693,1.249 -2.83,1.642c-1.138,0.393 -2.304,0.577 -3.498,0.552c-1.521,-0.017 -2.807,-0.312 -3.861,-0.884c-1.053,-0.573 -1.827,-1.371 -2.323,-2.395c-0.495,-1.024 -0.664,-2.175 -0.507,-3.454l0.085,-0.627c0.214,-1.304 0.726,-2.47 1.537,-3.498c0.811,-1.028 1.87,-1.828 3.177,-2.401c1.306,-0.572 2.748,-0.842 4.325,-0.808c1.915,0.033 3.447,0.509 4.596,1.429c1.149,0.919 1.723,2.085 1.723,3.498l-2.855,-0.013c-0.023,-0.886 -0.355,-1.602 -0.997,-2.15c-0.642,-0.547 -1.509,-0.838 -2.602,-0.871c-1.588,-0.025 -2.909,0.414 -3.962,1.316c-1.053,0.903 -1.709,2.165 -1.968,3.787l-0.051,0.326c-0.068,0.535 -0.079,1.086 -0.034,1.655c0.079,0.977 0.451,1.751 1.115,2.319c0.665,0.568 1.577,0.865 2.737,0.89Z" style="fill:#64727d;fill-rule:nonzero;"/><path d="M430.82,141.521c-0.078,-0.242 -0.118,-0.481 -0.118,-0.715l0.051,-0.714c-1.678,1.153 -3.458,1.713 -5.339,1.68c-1.611,-0.017 -2.92,-0.395 -3.928,-1.135c-1.009,-0.74 -1.468,-1.665 -1.377,-2.777c0.112,-1.438 0.96,-2.56 2.542,-3.366c1.583,-0.807 3.664,-1.21 6.243,-1.21l3.194,0.012l0.202,-1.078c0.113,-0.811 -0.098,-1.452 -0.633,-1.924c-0.535,-0.473 -1.338,-0.717 -2.408,-0.734c-1.047,-0.017 -1.974,0.174 -2.779,0.571c-0.806,0.397 -1.298,0.921 -1.479,1.573l-3.075,0.013c0.102,-0.794 0.519,-1.499 1.251,-2.113c0.732,-0.614 1.672,-1.091 2.821,-1.429c1.149,-0.339 2.338,-0.5 3.565,-0.483c1.904,0.034 3.385,0.462 4.444,1.285c1.059,0.823 1.504,1.916 1.335,3.279l-1.487,6.72l-0.085,0.965c-0.022,0.46 0.045,0.916 0.203,1.367l-0.034,0.213l-3.109,0Zm-4.798,-1.755c0.98,0.017 1.906,-0.157 2.779,-0.521c0.873,-0.363 1.625,-0.867 2.256,-1.51l0.659,-2.796l-2.315,-0.013c-1.926,0 -3.401,0.226 -4.426,0.677c-1.025,0.452 -1.606,1.091 -1.741,1.919c-0.101,0.635 0.099,1.163 0.6,1.586c0.501,0.422 1.231,0.641 2.188,0.658Z" style="fill:#64727d;fill-rule:nonzero;"/><path d="M444.134,127.943l-0.439,1.717c1.645,-1.337 3.514,-1.989 5.609,-1.955c1.724,0.033 2.997,0.476 3.819,1.329c0.822,0.852 1.126,2.052 0.912,3.598l-1.993,8.889l-3.059,0l2.011,-8.927c0.068,-0.409 0.073,-0.79 0.017,-1.141c-0.192,-1.17 -1.121,-1.767 -2.788,-1.793c-1.836,-0.025 -3.447,0.703 -4.832,2.182l-2.264,9.679l-3.058,0l3.176,-13.566l2.889,-0.012Z" style="fill:#64727d;fill-rule:nonzero;"/><path d="M480.359,138.349l6.589,-10.394l3.227,0l-9.208,13.566l-2.331,0l-3.582,-13.566l3.007,0l2.298,10.394Z" style="fill:#64727d;fill-rule:nonzero;"/><path d="M498.049,141.772c-2.276,-0.034 -4.055,-0.656 -5.339,-1.868c-1.284,-1.212 -1.825,-2.763 -1.622,-4.652l0.084,-0.539c0.192,-1.346 0.73,-2.574 1.614,-3.686c0.884,-1.112 1.962,-1.95 3.235,-2.514c1.273,-0.564 2.647,-0.833 4.123,-0.808c1.881,0.033 3.357,0.497 4.427,1.391c1.07,0.895 1.655,2.107 1.757,3.636c0.034,0.543 0.011,1.087 -0.068,1.63l-0.186,1.041l-11.945,-0c-0.203,1.228 0.07,2.273 0.819,3.134c0.749,0.861 1.867,1.308 3.354,1.342c1.802,0.033 3.469,-0.569 5.001,-1.806l1.758,1.104c-0.766,0.819 -1.755,1.46 -2.966,1.924c-1.211,0.464 -2.559,0.688 -4.046,0.671Zm1.943,-12.174c-1.262,-0.025 -2.363,0.292 -3.303,0.953c-0.941,0.66 -1.687,1.642 -2.239,2.946l8.887,0.013l0.068,-0.201c0.18,-1.053 -0.048,-1.929 -0.685,-2.627c-0.636,-0.698 -1.545,-1.059 -2.728,-1.084Z" style="fill:#64727d;fill-rule:nonzero;"/><path d="M519.456,130.024l-1.436,-0.113c-1.96,0 -3.503,0.656 -4.63,1.969l-2.247,9.641l-3.058,0l3.176,-13.566l2.957,-0.012l-0.456,1.58c1.295,-1.263 2.821,-1.877 4.579,-1.843c0.371,-0 0.856,0.062 1.453,0.188l-0.338,2.156Z" style="fill:#64727d;fill-rule:nonzero;"/><path d="M522.919,141.521l-3.041,0l3.177,-13.566l3.041,0l-3.177,13.566Zm2.518,-18.518c0.518,-0.017 0.949,0.098 1.292,0.345c0.344,0.246 0.516,0.57 0.516,0.971c-0.012,0.393 -0.183,0.715 -0.516,0.966c-0.332,0.251 -0.763,0.384 -1.292,0.401c-0.53,0.017 -0.963,-0.096 -1.301,-0.338c-0.338,-0.243 -0.501,-0.56 -0.49,-0.953c0.011,-0.393 0.18,-0.719 0.507,-0.978c0.326,-0.259 0.754,-0.397 1.284,-0.414Z" style="fill:#64727d;fill-rule:nonzero;"/><path d="M529.407,141.521l2.771,-11.773l-2.821,0l0.422,-1.793l2.805,0l0.304,-1.604c0.293,-1.363 1.002,-2.429 2.129,-3.198c1.182,-0.802 2.692,-1.195 4.528,-1.178c0.574,-0 1.301,0.071 2.179,0.213l-0.371,1.893c-0.541,-0.083 -1.087,-0.133 -1.639,-0.15c-1.059,-0 -1.918,0.244 -2.577,0.733c-0.659,0.489 -1.067,1.139 -1.225,1.95l-0.27,1.341l3.785,0l-0.423,1.793l-3.784,0l-2.754,11.773l-3.059,0Z" style="fill:#64727d;fill-rule:nonzero;"/><path d="M546.303,138.098l6.505,-10.143l3.379,0l-10.847,15.823c-1.509,2.198 -3.447,3.285 -5.812,3.26c-0.417,-0.009 -1.031,-0.084 -1.842,-0.226l0.271,-1.881l0.794,0.063c0.968,0.033 1.805,-0.127 2.509,-0.483c0.704,-0.355 1.326,-0.93 1.867,-1.724l1.098,-1.554l-3.16,-13.278l3.194,0l2.044,10.143Z" style="fill:#64727d;fill-rule:nonzero;"/><path d="M136.359,108.429l-13.312,-0l8.812,-50.719l13.313,0l-8.813,50.719Zm-2.953,-63.609c-0.062,-2.094 0.625,-3.829 2.063,-5.204c1.437,-1.375 3.172,-2.062 5.203,-2.062c2,-0.063 3.734,0.547 5.203,1.828c1.469,1.281 2.234,2.938 2.297,4.969c0.062,1.937 -0.586,3.625 -1.945,5.062c-1.36,1.438 -3.133,2.188 -5.321,2.25c-1.969,0.063 -3.695,-0.531 -5.179,-1.781c-1.485,-1.25 -2.258,-2.937 -2.321,-5.062Z" style="fill:#244484;fill-rule:nonzero;stroke:#244484;stroke-width:2px;"/><path d="M168.656,57.663l-1.078,5.766c4.094,-4.563 9.047,-6.781 14.859,-6.656c3.125,0.062 5.719,0.781 7.782,2.156c2.062,1.375 3.453,3.234 4.172,5.578c4.468,-5.281 9.718,-7.859 15.75,-7.734c4.656,0.093 8.164,1.687 10.523,4.781c2.359,3.094 3.352,7.562 2.977,13.406l-0.094,1.172l-5.391,32.297l-13.265,-0l5.39,-32.391c0.125,-1.156 0.172,-2.234 0.141,-3.234c-0.219,-3.281 -2.094,-4.969 -5.625,-5.063c-3.625,0 -6.734,1.938 -9.328,5.813l-0.141,1.078l-5.906,33.797l-13.219,-0l5.391,-32.297c0.125,-1.156 0.172,-2.234 0.14,-3.234c-0.218,-3.313 -2.078,-5.016 -5.578,-5.11c-3.343,-0.093 -6.359,1.485 -9.047,4.735l-6.328,35.906l-13.218,-0l8.765,-50.719l12.328,-0.047Z" style="fill:#244484;fill-rule:nonzero;stroke:#244484;stroke-width:2px;"/><path d="M249.75,57.663l-1.078,5.766c4.094,-4.563 9.047,-6.781 14.859,-6.656c3.125,0.062 5.719,0.781 7.781,2.156c2.063,1.375 3.454,3.234 4.172,5.578c4.469,-5.281 9.719,-7.859 15.75,-7.734c4.657,0.093 8.164,1.687 10.524,4.781c2.359,3.094 3.351,7.562 2.976,13.406l-0.093,1.172l-5.391,32.297l-13.266,-0l5.391,-32.391c0.125,-1.156 0.172,-2.234 0.141,-3.234c-0.219,-3.281 -2.094,-4.969 -5.625,-5.063c-3.625,0 -6.735,1.938 -9.329,5.813l-0.14,1.078l-5.906,33.797l-13.219,-0l5.39,-32.297c0.125,-1.156 0.172,-2.234 0.141,-3.234c-0.219,-3.313 -2.078,-5.016 -5.578,-5.11c-3.344,-0.093 -6.359,1.485 -9.047,4.735l-6.328,35.906l-13.219,-0l8.766,-50.719l12.328,-0.047Z" style="fill:#244484;fill-rule:nonzero;stroke:#244484;stroke-width:2px;"/><path d="M341.156,103.179c-3.75,4.219 -8.406,6.281 -13.969,6.187c-4.875,-0.062 -8.562,-1.812 -11.062,-5.25c-2.5,-3.437 -3.469,-7.968 -2.906,-13.593l5.484,-32.813l13.219,0l-5.578,32.953c-0.125,1.032 -0.141,2 -0.047,2.907c0.312,3.125 2.047,4.734 5.203,4.828c4.094,0.125 7.484,-1.453 10.172,-4.735l6.328,-35.953l13.313,0l-8.813,50.719l-12.328,-0l0.984,-5.25Z" style="fill:#244484;fill-rule:nonzero;stroke:#244484;stroke-width:2px;"/><path d="M386.719,91.695l14.437,-33.985l14.25,0l-24.515,50.719l-12.657,-0l-8.672,-50.719l13.407,0l3.75,33.985Z" style="fill:#fff;fill-rule:nonzero;stroke:#f25e0d;stroke-width:3px;"/><path d="M441.234,56.773c4.469,0.062 8.321,1.211 11.555,3.445c3.234,2.234 5.609,5.313 7.125,9.234c1.516,3.922 2.055,8.274 1.617,13.055c-0.719,8.063 -3.523,14.586 -8.414,19.57c-4.89,4.985 -10.93,7.414 -18.117,7.289c-4.406,-0.062 -8.219,-1.195 -11.438,-3.398c-3.218,-2.203 -5.593,-5.258 -7.125,-9.164c-1.531,-3.906 -2.078,-8.219 -1.64,-12.938c0.812,-8.375 3.656,-15.031 8.531,-19.968c4.875,-4.938 10.844,-7.313 17.906,-7.125Zm-13.359,31.922c0.062,3 0.766,5.367 2.109,7.101c1.344,1.735 3.235,2.633 5.672,2.695c4.063,0.125 7.25,-1.742 9.563,-5.601c2.312,-3.859 3.39,-8.93 3.234,-15.211c-0.125,-3 -0.851,-5.398 -2.18,-7.195c-1.328,-1.797 -3.226,-2.727 -5.695,-2.789c-3.937,-0.125 -7.086,1.726 -9.445,5.554c-2.36,3.828 -3.446,8.977 -3.258,15.446Z" style="fill:#fff;fill-rule:nonzero;stroke:#f25e0d;stroke-width:3px;"/><path d="M492.141,45.241l-2.204,12.469l8.438,0l-1.734,9.938l-8.438,-0l-4.312,25.406c-0.188,1.594 -0.063,2.812 0.375,3.656c0.437,0.844 1.5,1.297 3.187,1.36c0.5,0.031 1.844,-0.047 4.031,-0.235l-0.937,10.36c-2.344,0.781 -4.875,1.14 -7.594,1.078c-4.344,-0.063 -7.578,-1.422 -9.703,-4.078c-2.125,-2.657 -3,-6.25 -2.625,-10.782l4.359,-26.765l-7.172,-0l1.735,-9.938l7.172,0l2.156,-12.469l13.266,0Z" style="fill:#fff;fill-rule:nonzero;stroke:#f25e0d;stroke-width:3px;"/><path d="M511.219,108.429l-13.313,-0l8.813,-50.719l13.312,0l-8.812,50.719Zm-2.953,-63.609c-0.063,-2.094 0.625,-3.829 2.062,-5.204c1.438,-1.375 3.172,-2.062 5.203,-2.062c2,-0.063 3.735,0.547 5.203,1.828c1.469,1.281 2.235,2.938 2.297,4.969c0.063,1.937 -0.586,3.625 -1.945,5.062c-1.359,1.438 -3.133,2.188 -5.32,2.25c-1.969,0.063 -3.696,-0.531 -5.18,-1.781c-1.484,-1.25 -2.258,-2.937 -2.32,-5.062Z" style="fill:#fff;fill-rule:nonzero;stroke:#f25e0d;stroke-width:3px;"/><path d="M543.328,57.663l-1.125,6c4.063,-4.718 8.985,-7.015 14.766,-6.89c4.781,0.093 8.312,1.843 10.594,5.25c2.281,3.406 3.109,8.125 2.484,14.156l-5.344,32.25l-13.219,-0l5.438,-32.391c0.156,-1.218 0.187,-2.328 0.094,-3.328c-0.407,-3.187 -2.407,-4.828 -6,-4.922c-3.469,-0.125 -6.578,1.485 -9.328,4.828l-6.329,35.813l-13.218,-0l8.812,-50.719l12.375,-0.047Z" style="fill:#fff;fill-rule:nonzero;stroke:#f25e0d;stroke-width:3px;"/><path d="M577.594,83.023c0.937,-7.844 3.492,-14.211 7.664,-19.102c4.172,-4.89 9.429,-7.289 15.773,-7.195c5.406,0.125 9.438,2.078 12.094,5.859l1.734,-4.922l12.141,0.047l-8.297,48.985c-0.906,6.75 -3.781,12.093 -8.625,16.031c-4.844,3.937 -10.844,5.844 -18,5.719c-3.5,-0.063 -6.844,-0.821 -10.031,-2.274c-3.188,-1.453 -5.813,-3.445 -7.875,-5.976l6.562,-8.063c2.938,3.719 6.625,5.641 11.063,5.766c3.437,0.125 6.375,-0.774 8.812,-2.696c2.438,-1.921 4.094,-4.632 4.969,-8.132l0.75,-3.047c-3.687,3.687 -7.828,5.468 -12.422,5.343c-4.937,-0.062 -8.859,-1.898 -11.765,-5.507c-2.907,-3.61 -4.5,-8.305 -4.782,-14.086c-0.093,-1.907 -0.015,-4.157 0.235,-6.75Zm12.984,5.531c0,2.937 0.617,5.289 1.852,7.055c1.234,1.765 3.023,2.695 5.367,2.789c3.594,0.125 6.781,-1.407 9.562,-4.594l3.938,-21.469c-1.344,-2.937 -3.828,-4.469 -7.453,-4.594c-3.375,-0.093 -6.235,1.266 -8.578,4.079c-2.344,2.812 -3.813,6.546 -4.407,11.203c-0.218,2.281 -0.312,4.125 -0.281,5.531Z" style="fill:#fff;fill-rule:nonzero;stroke:#f25e0d;stroke-width:3px;"/></g><g><path d="M92,68.366l-11.25,11.233l-67.5,0l-11.25,-11.233l11.25,-22.467l67.5,-0l11.25,22.467Z" style="fill:#ecf0f1;fill-rule:nonzero;"/><rect x="26.429" y="54.065" width="41.143" height="3.404" style="fill:#64727d;"/><path d="M21.024,35.207l22.317,21.592l31.241,-32.207l-22.318,-21.592l-31.24,32.207Z" style="fill:#f25e0d;fill-rule:nonzero;"/><path d="M8.818,147l76.364,0c3.765,0 6.818,-3.048 6.818,-6.808l-0,-71.826l-90,-0l-0,71.826c-0,3.76 3.052,6.808 6.818,6.808Z" style="fill:#d0d5d9;fill-rule:nonzero;"/><path d="M24.504,105.088l7.938,-0.106l0.592,0.155c1.603,0.923 3.112,1.979 4.521,3.173c1.018,0.863 1.991,1.802 2.914,2.82c2.847,-4.583 5.881,-8.79 9.088,-12.659c3.51,-4.24 7.236,-8.088 11.15,-11.598l0.774,-0.299l8.662,0l-1.747,1.941c-5.368,5.964 -10.238,12.128 -14.638,18.485c-4.4,6.363 -8.336,12.93 -11.835,19.691l-1.089,2.1l-1.001,-2.139c-1.846,-3.963 -4.058,-7.601 -6.694,-10.851c-2.637,-3.251 -5.705,-6.136 -9.282,-8.591l0.647,-2.122Z" style="fill:#244484;fill-rule:nonzero;"/></g></g></svg>